<svg width="1200" height="720" viewBox="0 0 1200 720" fill="none" xmlns="http://www.w3.org/2000/svg">
  <defs>
    <linearGradient id="bg" x1="0" y1="0" x2="1" y2="1">
      <stop offset="0%" stop-color="#0F172A"/>
      <stop offset="100%" stop-color="#1E293B"/>
    </linearGradient>
  </defs>
  <rect width="1200" height="720" rx="36" fill="url(#bg)"/>
  <rect x="48" y="48" width="1104" height="624" rx="24" fill="#111827" stroke="#334155" stroke-width="2"/>
  <rect x="80" y="88" width="1040" height="48" rx="12" fill="#1F2937"/>
  <circle cx="110" cy="112" r="10" fill="#F87171"/>
  <circle cx="140" cy="112" r="10" fill="#FBBF24"/>
  <circle cx="170" cy="112" r="10" fill="#34D399"/>
  <text x="210" y="120" fill="#E5E7EB" font-family="Inter, Arial, sans-serif" font-size="20" font-weight="600">Audio</text>
  <text x="88" y="180" fill="#CBD5F5" font-family="Inter, Arial, sans-serif" font-size="28" font-weight="600">Classification Panel</text>
  <rect x="88" y="210" width="1024" height="1" fill="#334155"/>
  <rect x="88" y="240" width="320" height="392" rx="16" fill="#0B1220" stroke="#334155"/>
  <rect x="432" y="240" width="680" height="180" rx="16" fill="#0B1220" stroke="#334155"/>
  <rect x="432" y="440" width="680" height="192" rx="16" fill="#0B1220" stroke="#334155"/>
  <text x="112" y="290" fill="#94A3B8" font-family="Inter, Arial, sans-serif" font-size="16">Navigation</text>
  <text x="456" y="288" fill="#94A3B8" font-family="Inter, Arial, sans-serif" font-size="16">Primary Panel</text>
  <text x="456" y="488" fill="#94A3B8" font-family="Inter, Arial, sans-serif" font-size="16">Secondary Panel</text>
  <text x="112" y="330" fill="#E2E8F0" font-family="Inter, Arial, sans-serif" font-size="18">• Audio Files</text><text x="112" y="362" fill="#E2E8F0" font-family="Inter, Arial, sans-serif" font-size="18">• Metadata</text><text x="112" y="394" fill="#E2E8F0" font-family="Inter, Arial, sans-serif" font-size="18">• Classification</text><text x="112" y="426" fill="#E2E8F0" font-family="Inter, Arial, sans-serif" font-size="18">• Transcript</text>
</svg>
